# xmcd CD database file
#
# Track frame offsets:
#	150
#	13676
#	26963
#	43033
#	56539
#	68876
#	82271
#	98149
#	113926
#	133797
#	149070
#	164357
#	180752
#	195982
#	214921
#	232124
#	247515
#	262478
#
# Disc length: 3743 seconds
#
# Revision: 2
# Processed by: cddbd v1.5.1PL2 Copyright (c) Steve Scherf et al.
# Submitted via: CDex 1.51
#
DISCID=0b0e9d12
DTITLE=Various Artist - Cajun and Zydeco
DYEAR=2001
DGENRE=Other
TTITLE0=Beausoleil -  Zydeco Gris Gris
TTITLE1=Nathan Abshire - Pine Grove Blues
TTITLE2=John Delafose and Eunice Playboys - Old Time Two Step
TTITLE3=Mamou Prairie Band - Jolie Fille
TTITLE4=Don Rich - Lovin' Cajun Style
TTITLE5=Cajun Gold - T-Bec Do
TTITLE6=The Balfa Brothers - Two Step De l'Anse A Paille
TTITLE7=Charivari - The Moneky And The Fiddle
TTITLE8=Nathan And The Zydeco Cha Cha's - Everybody Got To Cry
TTITLE9=Eddie Lejeune - J'ai Passe Devant Ta Porte
TTITLE10=Boozoo Chavis - Zydeco Hee Haw
TTITLE11=Jambalaya Cajun Band - Le Moulin Est Cassé
TTITLE12=Johnnie Allan - Alligator Walk
TTITLE13=Kevin Naquin and The Ossun Playboys - Pour La Premiere Fois
TTITLE14=Rosie Ledet - So Damn Bad
TTITLE15=Rockin Sidney - Mais Yeah Chere
TTITLE16=Steve Riley and Mamou Playboys - Bee De La Manche
TTITLE17=Beausoleil - Blues A Bebe
EXTD=YEAR: 2001
EXTT0=
EXTT1=
EXTT2=
EXTT3=
EXTT4=
EXTT5=
EXTT6=
EXTT7=
EXTT8=
EXTT9=
EXTT10=
EXTT11=
EXTT12=
EXTT13=
EXTT14=
EXTT15=
EXTT16=
EXTT17=
PLAYORDER=
